<svg xmlns="http://www.w3.org/2000/svg" width="701.633" height="1060.419" viewBox="0 0 701.633 1060.419">
  <g id="Group_8462" data-name="Group 8462" transform="translate(0 -123.559)">
    <g id="bg_triangles_splash" data-name="bg triangles splash" transform="translate(0 131.77)" opacity="0.04">
      <g id="Group_8112" data-name="Group 8112" transform="translate(0)" opacity="0.819">
        <path id="Path_2166" data-name="Path 2166" d="M0,265.366V382.412H117.046Z" transform="translate(0 202.167)" fill="#1e2c4d"/>
        <path id="Path_2167" data-name="Path 2167" d="M0-55.991V61.055H117.046Z" transform="translate(0 55.991)" fill="#1e2c4d"/>
        <path id="Path_2168" data-name="Path 2168" d="M0,586.723V703.769H117.046Z" transform="translate(0 348.343)" fill="#1e2c4d"/>
        <path id="Path_2169" data-name="Path 2169" d="M0,185.027V302.073H117.046Z" transform="translate(0 165.623)" fill="#1e2c4d"/>
        <path id="Path_2170" data-name="Path 2170" d="M0,104.687V221.733H117.046Z" transform="translate(0 129.079)" fill="#1e2c4d"/>
        <path id="Path_2171" data-name="Path 2171" d="M81.3,265.314V382.36H198.342Z" transform="translate(36.979 202.144)" fill="#1e2c4d"/>
        <path id="Path_2172" data-name="Path 2172" d="M321.357,265.314V382.36H438.4Z" transform="translate(146.176 202.144)" fill="#1e2c4d"/>
        <path id="Path_2173" data-name="Path 2173" d="M81.3,586.671V703.717H198.342Z" transform="translate(36.979 348.319)" fill="#1e2c4d"/>
        <path id="Path_2174" data-name="Path 2174" d="M81.3,184.974V302.02H198.342Z" transform="translate(36.979 165.599)" fill="#1e2c4d"/>
        <path id="Path_2175" data-name="Path 2175" d="M160.679,426.045V543.091H277.725Z" transform="translate(73.088 275.255)" fill="#1e2c4d"/>
        <path id="Path_2176" data-name="Path 2176" d="M160.679,24.348V141.394H277.725Z" transform="translate(73.088 92.535)" fill="#1e2c4d"/>
        <path id="Path_2177" data-name="Path 2177" d="M321.357,506.384V623.43H438.4Z" transform="translate(146.176 311.799)" fill="#1e2c4d"/>
        <path id="Path_2178" data-name="Path 2178" d="M241.018,426.045V543.091H358.064Z" transform="translate(109.632 275.255)" fill="#1e2c4d"/>
        <path id="Path_2179" data-name="Path 2179" d="M160.679,345.7V462.751H277.725Z" transform="translate(73.088 238.711)" fill="#1e2c4d"/>
        <path id="Path_2180" data-name="Path 2180" d="M321.357,24.348V141.394H438.4Z" transform="translate(-203.824 92.535)" fill="#1e2c4d"/>
        <path id="Path_2181" data-name="Path 2181" d="M160.679,586.723V703.769H277.725Z" transform="translate(73.088 348.343)" fill="#1e2c4d"/>
        <path id="Path_2182" data-name="Path 2182" d="M321.357,345.653v234.1h234.1Z" transform="translate(146.176 238.687)" fill="#1e2c4d"/>
        <path id="Path_2183" data-name="Path 2183" d="M241.018,506.332v234.1h234.1Z" transform="translate(109.632 311.776)" fill="#1e2c4d"/>
      </g>
    </g>
    <g id="bg_triangles_splash-2" data-name="bg triangles splash" transform="translate(0 123.559)" opacity="0.701">
      <g id="Group_8112-2" data-name="Group 8112" transform="translate(0)" opacity="0.324">
        <path id="Path_2166-2" data-name="Path 2166" d="M0,265.366V382.412H117.046Z" transform="translate(0 202.167)" fill="#fff"/>
        <path id="Path_2167-2" data-name="Path 2167" d="M0-55.991V61.055H117.046Z" transform="translate(0 55.991)" fill="#fff"/>
        <path id="Path_2169-2" data-name="Path 2169" d="M0,185.027V302.073H117.046Z" transform="translate(0 165.623)" fill="#fff"/>
        <path id="Path_2170-2" data-name="Path 2170" d="M0,104.687V221.733H117.046Z" transform="translate(0 129.079)" fill="#fff"/>
        <path id="Path_2171-2" data-name="Path 2171" d="M81.3,265.314V382.36H198.342Z" transform="translate(36.979 202.144)" fill="#fff"/>
        <path id="Path_2172-2" data-name="Path 2172" d="M321.357,265.314V382.36H438.4Z" transform="translate(146.176 202.144)" fill="#fff"/>
        <path id="Path_2174-2" data-name="Path 2174" d="M81.3,184.974V302.02H198.342Z" transform="translate(36.979 165.599)" fill="#fff"/>
        <path id="Path_2175-2" data-name="Path 2175" d="M160.679,426.045V543.091H277.725Z" transform="translate(73.088 275.255)" fill="#fff"/>
        <path id="Path_2176-2" data-name="Path 2176" d="M160.679,24.348V141.394H277.725Z" transform="translate(73.088 92.535)" fill="#fff"/>
        <path id="Path_2178-2" data-name="Path 2178" d="M241.018,426.045V543.091H358.064Z" transform="translate(109.632 275.255)" fill="#fff"/>
        <path id="Path_2179-2" data-name="Path 2179" d="M160.679,345.7V462.751H277.725Z" transform="translate(73.088 238.711)" fill="#fff"/>
        <path id="Path_2180-2" data-name="Path 2180" d="M321.357,24.348V141.394H438.4Z" transform="translate(-203.824 92.535)" fill="#fff"/>
        <path id="Path_2182-2" data-name="Path 2182" d="M321.357,345.653v234.1h234.1Z" transform="translate(146.176 238.687)" fill="#fff"/>
      </g>
    </g>
  </g>
</svg>
