<svg xmlns="http://www.w3.org/2000/svg" width="30" height="30" viewBox="0 0 30 30">
  <g id="Group_8342" data-name="Group 8342" transform="translate(0.168)">
    <rect id="Rectangle_2767" data-name="Rectangle 2767" width="30" height="30" rx="6" transform="translate(-0.168)" fill="#1e2c4d" opacity="0"/>
    <path id="Path_2419" data-name="Path 2419" d="M0-8.994A3.361,3.361,0,0,0-3.363-5.628,3.361,3.361,0,0,0,0-2.262,3.361,3.361,0,0,0,3.369-5.628,3.361,3.361,0,0,0,0-8.994ZM0-3.439A2.192,2.192,0,0,1-2.186-5.628,2.191,2.191,0,0,1,0-7.816,2.191,2.191,0,0,1,2.191-5.628,2.192,2.192,0,0,1,0-3.439ZM4.292-9.132a.785.785,0,0,0-.785-.785.785.785,0,0,0-.785.785.783.783,0,0,0,.785.785A.783.783,0,0,0,4.292-9.132Zm2.229.8a3.885,3.885,0,0,0-1.061-2.751A3.911,3.911,0,0,0,2.71-12.146c-1.084-.062-4.333-.062-5.417,0a3.905,3.905,0,0,0-2.751,1.058A3.9,3.9,0,0,0-6.519-8.338C-6.58-7.254-6.58-4-6.519-2.921A3.886,3.886,0,0,0-5.458-.17,3.916,3.916,0,0,0-2.707.891c1.084.062,4.333.062,5.417,0A3.886,3.886,0,0,0,5.461-.17,3.911,3.911,0,0,0,6.521-2.921C6.583-4,6.583-7.251,6.521-8.335Zm-1.4,6.577A2.216,2.216,0,0,1,3.873-.51,14.469,14.469,0,0,1,0-.246,14.582,14.582,0,0,1-3.867-.51,2.216,2.216,0,0,1-5.115-1.758a14.469,14.469,0,0,1-.264-3.87A14.582,14.582,0,0,1-5.115-9.5a2.216,2.216,0,0,1,1.248-1.248A14.469,14.469,0,0,1,0-11.01a14.582,14.582,0,0,1,3.87.264A2.216,2.216,0,0,1,5.121-9.5a14.469,14.469,0,0,1,.264,3.87A14.461,14.461,0,0,1,5.121-1.758Z" transform="translate(15 20.5)" fill="#1e2c4d" opacity="0.998"/>
  </g>
</svg>
