<svg xmlns="http://www.w3.org/2000/svg" width="35.516" height="35.516" viewBox="0 0 35.516 35.516"><g transform="translate(0 -0.001)"><g transform="translate(0 0.001)"><path d="M29.488.41a1.4,1.4,0,0,0-1.973,0L.409,27.516a1.4,1.4,0,0,0,0,1.973A20.562,20.562,0,0,0,29.488.41ZM23.949,7.922a11.364,11.364,0,0,1,2.327,5.632H18.317Zm2.327,8.423a11.362,11.362,0,0,1-2.328,5.632l-5.632-5.632Zm-9.932,1.974,5.631,5.631a11.363,11.363,0,0,1-5.631,2.327Zm-2.791,0v7.959A11.364,11.364,0,0,1,7.921,23.95Zm13.962,9.2a17.8,17.8,0,0,1-24.108.948l2.53-2.53A14.228,14.228,0,0,0,25,25h0a14.229,14.229,0,0,0,.938-19.059l2.53-2.53A17.8,17.8,0,0,1,27.515,27.516Z" transform="translate(0 -0.001)" fill="#1e2c4d"/></g></g></svg>