<svg id="walk" xmlns="http://www.w3.org/2000/svg" width="43.92" height="38.601" viewBox="0 0 43.92 38.601">
  <path id="Path_1868" data-name="Path 1868" d="M34.055,48.156H30.168a2.139,2.139,0,0,1-1.98-1.32l-3.409-8.182a1.286,1.286,0,0,0-1.33-.784,6.481,6.481,0,0,1-7.157-5.726,1.287,1.287,0,0,0-2.094-.854L7.753,36.565a11.539,11.539,0,0,0-2.7,3.173L.519,47.6A3.86,3.86,0,0,0,1.932,52.87L20.5,63.593a6.442,6.442,0,0,0,3.217.862H40.06a3.864,3.864,0,0,0,3.86-3.86V58.021A9.876,9.876,0,0,0,34.055,48.156Zm7.175,8.578H35.342V50.846A7.308,7.308,0,0,1,41.231,56.734ZM9.382,38.556l4.859-3.975a9.069,9.069,0,0,0,8.474,5.9h.038l.843,2.022-2.364,1.365A1.287,1.287,0,1,0,22.519,46.1l2.075-1.2,1,2.4-1.787,1.031a1.287,1.287,0,1,0,1.287,2.229l1.871-1.08a4.706,4.706,0,0,0,3.2,1.253h2.6v6h-8.7L11.285,49.355A9.012,9.012,0,0,0,8.738,39.138q.307-.3.644-.582ZM7.184,41.2a6.472,6.472,0,0,1,1.838,6.848L4.678,45.541ZM40.06,61.881H23.721a3.865,3.865,0,0,1-1.93-.517L3.219,50.641a1.287,1.287,0,0,1-.471-1.758l.643-1.114L23.078,59.135a1.286,1.286,0,0,0,.643.172H41.347v1.287A1.288,1.288,0,0,1,40.06,61.881Z" transform="translate(0 -31)" fill="#1e2c4d"/>
  <path id="Path_1869" data-name="Path 1869" d="M7.291,451h-6a1.287,1.287,0,1,0,0,2.573h6a1.287,1.287,0,1,0,0-2.573Z" transform="translate(0 -414.972)" fill="#1e2c4d"/>
  <path id="Path_1870" data-name="Path 1870" d="M171.188,451h-19.9a1.287,1.287,0,1,0,0,2.573h19.9a1.287,1.287,0,1,0,0-2.573Z" transform="translate(-137.133 -414.972)" fill="#1e2c4d"/>
  <path id="Path_1871" data-name="Path 1871" d="M10.737,391H1.3a1.287,1.287,0,0,0,0,2.573h9.436a1.287,1.287,0,0,0,0-2.573Z" transform="translate(-0.013 -360.119)" fill="#1e2c4d"/>
  <path id="Path_1872" data-name="Path 1872" d="M446.718,451h-3.431a1.287,1.287,0,0,0,0,2.573h3.431a1.287,1.287,0,1,0,0-2.573Z" transform="translate(-404.085 -414.972)" fill="#1e2c4d"/>
</svg>
